# Exported from ProBuilder
# http://www.procore3d.com/probuilder
# 23/03/2019 00:12:02

mtllib ./Plat_5_24.mtl
o Plat 5 24

g Plat 5 24
v 13 43 67
v 8 43 67
v 13 45 67
v 8 45 67
v 8 43 67
v 8 43 43
v 8 45 67
v 8 45 43
v 8 43 43
v 13 43 43
v 8 45 43
v 13 45 43
v 13 43 43
v 13 43 67
v 13 45 43
v 13 45 67
v 13 45 67
v 8 45 67
v 13 45 43
v 8 45 43
v 13 43 43
v 8 43 43
v 13 43 67
v 8 43 67

vn 0 0 1
vn 0 0 1
vn 0 0 1
vn 0 0 1
vn -1 0 0
vn -1 0 0
vn -1 0 0
vn -1 0 0
vn 0 0 -1
vn 0 0 -1
vn 0 0 -1
vn 0 0 -1
vn 1 0 0
vn 1 0 0
vn 1 0 0
vn 1 0 0
vn 0 1 0
vn 0 1 0
vn 0 1 0
vn 0 1 0
vn 0 -1 0
vn 0 -1 0
vn 0 -1 0
vn 0 -1 0

vt 2.5 -1
vt -2.5 -1
vt 2.5 1
vt -2.5 1
vt 12 -1
vt -12 -1
vt 12 1
vt -12 1
vt 2.5 -1
vt -2.5 -1
vt 2.5 1
vt -2.5 1
vt 12 -1
vt -12 -1
vt 12 1
vt -12 1
vt -2.5 12
vt 2.5 12
vt -2.5 -12
vt 2.5 -12
vt 2.5 -12
vt -2.5 -12
vt 2.5 12
vt -2.5 12

g Plat 5 24
usemtl Default_Prototype
f 3/3/3 4/4/4 2/2/2 1/1/1
f 7/7/7 8/8/8 6/6/6 5/5/5
f 11/11/11 12/12/12 10/10/10 9/9/9
f 15/15/15 16/16/16 14/14/14 13/13/13
f 19/19/19 20/20/20 18/18/18 17/17/17
f 23/23/23 24/24/24 22/22/22 21/21/21

