# This file uses centimeters as units for non-parametric coordinates.

mtllib pan tower.mtl
g default
v 49.748840 180.000000 -120.104301
v -49.748840 180.000000 -120.104301
v 47.835430 180.000000 -115.484901
v -47.835419 180.000000 -115.484901
v 47.835430 210.000000 -115.484901
v -47.835419 210.000000 -115.484901
v 49.748840 210.000000 -120.104301
v -49.748840 210.000000 -120.104301
vt 7.770893 2.343038
vt -7.770893 2.343038
vt -7.770893 -2.343038
vt 7.770893 -2.343038
vt 7.472012 2.343038
vt -7.472010 2.343038
vt -7.472010 -2.343038
vt 7.472012 -2.343038
vn 0.000000 0.000000 -1.000000
vn 0.000000 0.000000 -1.000000
vn 0.000000 0.000000 -1.000000
vn 0.000000 0.000000 -1.000000
vn 0.000000 0.000000 1.000000
vn 0.000000 0.000000 1.000000
vn 0.000000 0.000000 1.000000
vn 0.000000 0.000000 1.000000
s off
g Mesh
usemtl lambert2SG
f 8/1/1 7/2/2 1/3/3 2/4/4
f 5/5/5 6/6/6 4/7/7 3/8/8
