# This file uses centimeters as units for non-parametric coordinates.

mtllib Pan tower gate.mtl
g default
v 49.748840 180.000000 -120.104301
v -49.748840 180.000000 -120.104301
v 47.835430 180.000000 -115.484901
v -47.835419 180.000000 -115.484901
v 47.835430 210.000000 -115.484901
v -47.835419 210.000000 -115.484901
v 49.748840 210.000000 -120.104301
v -49.748840 210.000000 -120.104301
v 47.835430 197.699997 -115.484901
v 49.748840 197.699997 -120.104301
v -49.748840 197.699997 -120.104301
v -47.835419 197.699997 -115.484901
v 6.696964 210.000000 -115.484901
v -6.696955 210.000000 -115.484901
v 6.964838 210.000000 -120.104301
v -6.964838 210.000000 -120.104301
v 6.964838 197.699997 -120.104301
v -6.964838 197.699997 -120.104301
v 6.964838 180.000000 -120.104301
v -6.964838 180.000000 -120.104301
v 6.696964 180.000000 -115.484901
v -6.696955 180.000000 -115.484901
v 6.696964 197.699997 -115.484901
v -6.696955 197.699997 -115.484901
vt -3.401386 -5.704237
vt -3.401386 -3.417871
vt -4.189927 -3.372145
vt -4.189927 -5.749964
vt 17.765106 -6.196784
vt 17.765106 -3.175360
vt 16.976562 -3.175360
vt 16.976562 -6.196784
vt 17.970882 -3.175360
vt 17.970882 -6.196784
vt 18.759422 -6.196784
vt 18.759422 -3.175360
vt -5.301373 1.272451
vt -5.301373 3.558819
vt -7.401010 3.558819
vt -7.401010 1.272451
vt -5.301373 10.581230
vt -7.401010 10.581230
vt -7.401010 -5.749964
vt -5.301373 -5.749964
vt -10.422436 10.581230
vt -10.422436 3.558819
vt -10.422436 1.272451
vt -10.422436 -5.749964
vt -14.526543 1.553350
vt -14.526543 3.931170
vt -16.626179 3.931170
vt -16.626179 1.553350
vt -14.526543 11.234476
vt -16.626179 11.234476
vt -16.626179 -5.749964
vt -14.526543 -5.749964
vt -11.505117 3.931170
vt -11.505117 11.234476
vt -11.505117 -5.749964
vt -11.505117 1.553350
vn 0.000000 0.000000 1.000000
vn 0.000000 0.000000 1.000000
vn 0.000000 0.000000 1.000000
vn 0.000000 0.000000 1.000000
vn 0.000000 0.000000 -1.000000
vn 0.000000 0.000000 -1.000000
vn 0.000000 0.000000 -1.000000
vn 0.000000 0.000000 -1.000000
vn 0.000000 0.000000 -1.000000
vn 0.000000 0.000000 -1.000000
vn 0.000000 0.000000 -1.000000
vn 0.000000 0.000000 -1.000000
vn 0.000000 0.000000 1.000000
vn 0.000000 0.000000 1.000000
vn 0.000000 0.000000 1.000000
vn 0.000000 0.000000 1.000000
vn 0.000000 0.000000 1.000000
vn 0.000000 0.000000 1.000000
vn 0.000000 0.000000 1.000000
vn 0.000000 0.000000 1.000000
vn 0.000000 0.000000 -1.000000
vn 0.000000 0.000000 -1.000000
vn 0.000000 0.000000 -1.000000
vn 0.000000 0.000000 -1.000000
vn 0.000000 0.000000 1.000000
vn 0.000000 0.000000 1.000000
vn 0.000000 0.000000 1.000000
vn 0.000000 0.000000 1.000000
vn 0.000000 0.000000 -1.000000
vn 0.000000 0.000000 -1.000000
vn 0.000000 0.000000 -1.000000
vn 0.000000 0.000000 -1.000000
vn 0.000000 0.000000 -1.000000
vn 0.000000 0.000000 -1.000000
vn 0.000000 0.000000 -1.000000
vn 0.000000 0.000000 -1.000000
vn 0.000000 0.000000 1.000000
vn 0.000000 0.000000 1.000000
vn 0.000000 0.000000 1.000000
vn 0.000000 0.000000 1.000000
vn -0.141473 -0.897153 0.418451
vn -0.141473 -0.897153 0.418451
vn -0.141473 -0.897153 0.418451
vn -0.141473 -0.897153 0.418451
vn -0.943153 0.097222 0.317822
vn -0.943153 0.097222 0.317822
vn -0.943153 0.097222 0.317822
vn -0.943153 0.097222 0.317822
vn 0.943153 0.097222 0.317822
vn 0.943153 0.097222 0.317822
vn 0.943153 0.097222 0.317822
vn 0.943153 0.097222 0.317822
s off
g Pan_tower_gate_Mesh
usemtl lambert2SG
f 13/13/1 14/14/2 24/15/3 23/16/4
f 17/25/5 18/26/6 16/27/7 15/28/8
f 11/29/9 18/26/10 20/33/11 2/34/12
f 24/15/13 12/18/14 4/21/15 22/22/16
f 21/23/17 3/24/18 9/19/19 23/16/20
f 17/25/21 10/32/22 1/35/23 19/36/24
f 23/16/25 9/19/26 5/20/27 13/13/28
f 18/26/29 11/29/30 8/30/31 16/27/32
f 15/28/33 7/31/34 10/32/35 17/25/36
f 24/15/37 14/14/38 6/17/39 12/18/40
f 23/1/41 24/2/42 18/3/43 17/4/44
f 21/5/45 23/6/46 17/7/47 19/8/48
f 24/9/49 22/10/50 20/11/51 18/12/52
