# This file uses centimeters as units for non-parametric coordinates.

mtllib torch.mtl
g default
v 0.587426 1.544010 0.163515
v -0.587426 1.544010 0.163515
v -0.587426 1.544010 -0.958097
v 0.587426 1.544010 -0.958097
v -0.453503 1.133641 0.163515
v 0.453503 1.133641 0.163515
v 0.453503 1.133641 -0.703581
v -0.453503 1.133641 -0.703581
vt -0.998940 2.713886
vt -0.998940 3.311142
vt -1.569132 3.311142
vt -1.569132 2.713886
vt -0.796227 2.154400
vt -0.796227 2.615486
vt -1.237025 2.615486
vt -1.237025 2.154400
vt 0.636246 3.569092
vt 0.469355 3.569092
vt 0.469355 2.998901
vt 0.636246 3.128288
vt 0.612316 3.128288
vt 0.779205 2.998901
vt 0.779205 3.569092
vt 0.612316 3.569092
vt -0.617352 3.489594
vt -0.784246 3.557678
vt -0.784246 2.960419
vt -0.617352 3.028503
vt -0.517910 3.028503
vt -0.351017 2.960419
vt -0.351017 3.557678
vt -0.517910 3.489594
vn 0.000000 1.000000 0.000000
vn 0.000000 1.000000 0.000000
vn 0.000000 1.000000 0.000000
vn 0.000000 1.000000 0.000000
vn -0.950657 -0.310245 0.000000
vn -0.950657 -0.310245 0.000000
vn -0.950657 -0.310245 0.000000
vn -0.950657 -0.310245 0.000000
vn 0.000000 -0.527070 -0.849822
vn 0.000000 -0.527070 -0.849822
vn 0.000000 -0.527070 -0.849822
vn 0.000000 -0.527070 -0.849822
vn 0.000000 0.000000 1.000000
vn 0.000000 0.000000 1.000000
vn 0.000000 0.000000 1.000000
vn 0.000000 0.000000 1.000000
vn 0.950657 -0.310245 0.000000
vn 0.950657 -0.310245 0.000000
vn 0.950657 -0.310245 0.000000
vn 0.950657 -0.310245 0.000000
vn 0.000000 -1.000000 0.000000
vn 0.000000 -1.000000 0.000000
vn 0.000000 -1.000000 0.000000
vn 0.000000 -1.000000 0.000000
s off
g Pyramid_2
usemtl lambert2SG
f 4/1/1 3/2/2 2/3/3 1/4/4
f 5/9/5 2/10/6 3/11/7 8/12/8
f 8/17/9 3/18/10 4/19/11 7/20/12
f 6/21/13 1/22/14 2/23/15 5/24/16
f 7/13/17 4/14/18 1/15/19 6/16/20
f 6/5/21 5/6/22 8/7/23 7/8/24
g default
v 0.420000 1.004619 0.163515
v -0.420000 1.004619 0.163515
v -0.420000 1.004619 -0.644861
v 0.420000 1.004619 -0.644861
v -0.324247 0.662645 0.163515
v 0.324247 0.662645 0.163515
v 0.324247 0.662645 -0.460194
v -0.324247 0.662645 -0.460194
vt 0.127819 2.014780
vt 0.127819 2.441803
vt -0.283131 2.441803
vt -0.283131 2.014780
vt -0.386089 2.097486
vt -0.386089 2.427158
vt -0.703161 2.427158
vt -0.703161 2.097486
vt -0.074162 3.157196
vt -0.213238 3.157196
vt -0.213238 2.746250
vt -0.074162 2.840130
vt -0.046581 2.840130
vt 0.092495 2.746250
vt 0.092495 3.157196
vt -0.046581 3.157196
vt -1.074713 3.792931
vt -1.213791 3.841614
vt -1.213791 3.414585
vt -1.074713 3.463264
vt -1.046478 3.463264
vt -0.907398 3.414585
vt -0.907398 3.841614
vt -1.046478 3.792931
vn 0.000000 1.000000 0.000000
vn 0.000000 1.000000 0.000000
vn 0.000000 1.000000 0.000000
vn 0.000000 1.000000 0.000000
vn -0.962964 -0.269630 0.000000
vn -0.962964 -0.269630 0.000000
vn -0.962964 -0.269630 0.000000
vn -0.962964 -0.269630 0.000000
vn 0.000000 -0.475149 -0.879905
vn 0.000000 -0.475149 -0.879905
vn 0.000000 -0.475149 -0.879905
vn 0.000000 -0.475149 -0.879905
vn 0.000000 0.000000 1.000000
vn 0.000000 0.000000 1.000000
vn 0.000000 0.000000 1.000000
vn 0.000000 0.000000 1.000000
vn 0.962964 -0.269630 0.000000
vn 0.962964 -0.269630 0.000000
vn 0.962964 -0.269630 0.000000
vn 0.962964 -0.269630 0.000000
vn 0.000000 -1.000000 0.000000
vn 0.000000 -1.000000 0.000000
vn 0.000000 -1.000000 0.000000
vn 0.000000 -1.000000 0.000000
s off
g Pyramid_1
usemtl lambert2SG
f 12/25/25 11/26/26 10/27/27 9/28/28
f 13/33/29 10/34/30 11/35/31 16/36/32
f 16/41/33 11/42/34 12/43/35 15/44/36
f 14/45/37 9/46/38 10/47/39 13/48/40
f 15/37/41 12/38/42 9/39/43 14/40/44
f 14/29/45 13/30/46 16/31/47 15/32/48
g default
v 0.280000 0.500000 0.163515
v -0.280000 0.500000 0.163515
v -0.280000 0.500000 -0.371255
v 0.280000 0.500000 -0.371255
v 0.000000 -0.500000 0.163515
vt -0.402962 2.481515
vt -0.402962 2.766201
vt -0.674820 2.766201
vt -0.674820 2.481515
vt 0.550983 2.804440
vt 0.279126 2.804440
vt 0.550983 2.397750
vt 0.865311 2.804440
vt 0.593456 2.804440
vt 0.593456 2.397750
vt 1.266747 3.055874
vt 0.982064 3.055874
vt 1.124403 2.649183
vt 1.642738 3.055351
vt 1.358051 3.055351
vt 1.500393 2.648655
vn 0.000000 1.000000 0.000000
vn 0.000000 1.000000 0.000000
vn 0.000000 1.000000 0.000000
vn 0.000000 1.000000 0.000000
vn -0.962964 -0.269630 0.000000
vn -0.962964 -0.269630 0.000000
vn -0.962964 -0.269630 0.000000
vn 0.000000 -0.471574 -0.881826
vn 0.000000 -0.471574 -0.881826
vn 0.000000 -0.471574 -0.881826
vn 0.962964 -0.269630 0.000000
vn 0.962964 -0.269630 0.000000
vn 0.962964 -0.269630 0.000000
vn 0.000000 0.000000 1.000000
vn 0.000000 0.000000 1.000000
vn 0.000000 0.000000 1.000000
s off
g Pyramid
usemtl lambert2SG
f 20/49/49 19/50/50 18/51/51 17/52/52
f 18/53/53 19/54/54 21/55/55
f 19/59/56 20/60/57 21/61/58
f 20/56/59 17/57/60 21/58/61
f 17/62/62 18/63/63 21/64/64
