# Exported from ProBuilder
# http://www.procore3d.com/probuilder
# 23/03/2019 00:13:39

mtllib ./Cube_(3).mtl
o Cube (3)

g Cube (3)
v 10 36 59
v 8 36 59
v 10 39 59
v 8 39 59
v 8 36 59
v 8 36 51
v 8 39 59
v 8 39 51
v 8 36 51
v 10 36 51
v 8 39 51
v 10 39 51
v 10 36 51
v 10 36 59
v 10 39 51
v 10 39 59
v 10 39 59
v 8 39 59
v 10 39 51
v 8 39 51
v 10 36 51
v 8 36 51
v 10 36 59
v 8 36 59

vn 0 0 1
vn 0 0 1
vn 0 0 1
vn 0 0 1
vn -1 0 0
vn -1 0 0
vn -1 0 0
vn -1 0 0
vn 0 0 -1
vn 0 0 -1
vn 0 0 -1
vn 0 0 -1
vn 1 0 0
vn 1 0 0
vn 1 0 0
vn 1 0 0
vn 0 1 0
vn 0 1 0
vn 0 1 0
vn 0 1 0
vn 0 -1 0
vn 0 -1 0
vn 0 -1 0
vn 0 -1 0

vt 1 -1.5
vt -1 -1.5
vt 1 1.5
vt -1 1.5
vt 4 -1.5
vt -4 -1.5
vt 4 1.5
vt -4 1.5
vt 1 -1.5
vt -1 -1.5
vt 1 1.5
vt -1 1.5
vt 4 -1.5
vt -4 -1.5
vt 4 1.5
vt -4 1.5
vt -1 4
vt 1 4
vt -1 -4
vt 1 -4
vt 1 -4
vt -1 -4
vt 1 4
vt -1 4

g Cube (3)
usemtl Default_Prototype
f 3/3/3 4/4/4 2/2/2 1/1/1
f 7/7/7 8/8/8 6/6/6 5/5/5
f 11/11/11 12/12/12 10/10/10 9/9/9
f 15/15/15 16/16/16 14/14/14 13/13/13
f 19/19/19 20/20/20 18/18/18 17/17/17
f 23/23/23 24/24/24 22/22/22 21/21/21

