# Exported from ProBuilder
# http://www.procore3d.com/probuilder
# 23/03/2019 00:08:49

mtllib ./Wall16.mtl
o Wall16

g Cube
v 10 26 59
v 8 26 59
v 10 29 59
v 8 29 59
v 8 26 59
v 8 26 43
v 8 29 59
v 8 29 43
v 8 26 43
v 10 26 43
v 8 29 43
v 10 29 43
v 10 26 43
v 10 26 59
v 10 29 43
v 10 29 59
v 10 29 59
v 8 29 59
v 10 29 43
v 8 29 43
v 10 26 43
v 8 26 43
v 10 26 59
v 8 26 59

vn 0 0 1
vn 0 0 1
vn 0 0 1
vn 0 0 1
vn -1 0 0
vn -1 0 0
vn -1 0 0
vn -1 0 0
vn 0 0 -1
vn 0 0 -1
vn 0 0 -1
vn 0 0 -1
vn 1 0 0
vn 1 0 0
vn 1 0 0
vn 1 0 0
vn 0 1 0
vn 0 1 0
vn 0 1 0
vn 0 1 0
vn 0 -1 0
vn 0 -1 0
vn 0 -1 0
vn 0 -1 0

vt 1 -1.5
vt -1 -1.5
vt 1 1.5
vt -1 1.5
vt 8 -1.5
vt -8 -1.5
vt 8 1.5
vt -8 1.5
vt 1 -1.5
vt -1 -1.5
vt 1 1.5
vt -1 1.5
vt 8 -1.5
vt -8 -1.5
vt 8 1.5
vt -8 1.5
vt -1 8
vt 1 8
vt -1 -8
vt 1 -8
vt 1 -8
vt -1 -8
vt 1 8
vt -1 8

g Cube
usemtl Default_Prototype
f 3/3/3 4/4/4 2/2/2 1/1/1
f 7/7/7 8/8/8 6/6/6 5/5/5
f 11/11/11 12/12/12 10/10/10 9/9/9
f 15/15/15 16/16/16 14/14/14 13/13/13
f 19/19/19 20/20/20 18/18/18 17/17/17
f 23/23/23 24/24/24 22/22/22 21/21/21

g Cube (2)
v 10 31 59
v 8 31 59
v 10 34 59
v 8 34 59
v 8 31 59
v 8 31 43
v 8 34 59
v 8 34 43
v 8 31 43
v 10 31 43
v 8 34 43
v 10 34 43
v 10 31 43
v 10 31 59
v 10 34 43
v 10 34 59
v 10 34 59
v 8 34 59
v 10 34 43
v 8 34 43
v 10 31 43
v 8 31 43
v 10 31 59
v 8 31 59

vn 0 0 1
vn 0 0 1
vn 0 0 1
vn 0 0 1
vn -1 0 0
vn -1 0 0
vn -1 0 0
vn -1 0 0
vn 0 0 -1
vn 0 0 -1
vn 0 0 -1
vn 0 0 -1
vn 1 0 0
vn 1 0 0
vn 1 0 0
vn 1 0 0
vn 0 1 0
vn 0 1 0
vn 0 1 0
vn 0 1 0
vn 0 -1 0
vn 0 -1 0
vn 0 -1 0
vn 0 -1 0

vt 1 -1.5
vt -1 -1.5
vt 1 1.5
vt -1 1.5
vt 8 -1.5
vt -8 -1.5
vt 8 1.5
vt -8 1.5
vt 1 -1.5
vt -1 -1.5
vt 1 1.5
vt -1 1.5
vt 8 -1.5
vt -8 -1.5
vt 8 1.5
vt -8 1.5
vt -1 8
vt 1 8
vt -1 -8
vt 1 -8
vt 1 -8
vt -1 -8
vt 1 8
vt -1 8

g Cube (2)
usemtl Default_Prototype
f 27/27/27 28/28/28 26/26/26 25/25/25
f 31/31/31 32/32/32 30/30/30 29/29/29
f 35/35/35 36/36/36 34/34/34 33/33/33
f 39/39/39 40/40/40 38/38/38 37/37/37
f 43/43/43 44/44/44 42/42/42 41/41/41
f 47/47/47 48/48/48 46/46/46 45/45/45

g Cube (3)
v 10 36 59
v 8 36 59
v 10 39 59
v 8 39 59
v 8 36 59
v 8 36 43
v 8 39 59
v 8 39 43
v 8 36 43
v 10 36 43
v 8 39 43
v 10 39 43
v 10 36 43
v 10 36 59
v 10 39 43
v 10 39 59
v 10 39 59
v 8 39 59
v 10 39 43
v 8 39 43
v 10 36 43
v 8 36 43
v 10 36 59
v 8 36 59

vn 0 0 1
vn 0 0 1
vn 0 0 1
vn 0 0 1
vn -1 0 0
vn -1 0 0
vn -1 0 0
vn -1 0 0
vn 0 0 -1
vn 0 0 -1
vn 0 0 -1
vn 0 0 -1
vn 1 0 0
vn 1 0 0
vn 1 0 0
vn 1 0 0
vn 0 1 0
vn 0 1 0
vn 0 1 0
vn 0 1 0
vn 0 -1 0
vn 0 -1 0
vn 0 -1 0
vn 0 -1 0

vt 1 -1.5
vt -1 -1.5
vt 1 1.5
vt -1 1.5
vt 8 -1.5
vt -8 -1.5
vt 8 1.5
vt -8 1.5
vt 1 -1.5
vt -1 -1.5
vt 1 1.5
vt -1 1.5
vt 8 -1.5
vt -8 -1.5
vt 8 1.5
vt -8 1.5
vt -1 8
vt 1 8
vt -1 -8
vt 1 -8
vt 1 -8
vt -1 -8
vt 1 8
vt -1 8

g Cube (3)
usemtl Default_Prototype
f 51/51/51 52/52/52 50/50/50 49/49/49
f 55/55/55 56/56/56 54/54/54 53/53/53
f 59/59/59 60/60/60 58/58/58 57/57/57
f 63/63/63 64/64/64 62/62/62 61/61/61
f 67/67/67 68/68/68 66/66/66 65/65/65
f 71/71/71 72/72/72 70/70/70 69/69/69

